<svg width="302" height="52" viewBox="0 0 302 52" fill="none" xmlns="http://www.w3.org/2000/svg">
<path d="M19.6032 19.5275C19.2265 19.5275 18.8499 19.3768 18.624 19.0755C18.0967 18.5483 18.0967 17.6444 18.624 17.0418L30.9017 4.7641C31.4289 4.23684 32.3328 4.23684 32.9354 4.7641C33.4626 5.29136 33.4626 6.19524 32.9354 6.79783L20.5824 19.1508C20.2811 19.4521 19.9798 19.5275 19.6032 19.5275Z" fill="url(#paint0_linear_191_3368)"/>
<path d="M3.55922 35.496C3.1826 35.496 2.80599 35.3453 2.58002 35.044C2.05275 34.5168 2.05275 33.6129 2.58002 33.0103L7.09941 28.4909C7.62668 27.9636 8.53056 27.9636 9.13314 28.4909C9.66041 29.0182 9.66041 29.922 9.13314 30.5246L4.53842 35.1194C4.23713 35.4206 3.86051 35.496 3.55922 35.496Z" fill="url(#paint1_linear_191_3368)"/>
<path d="M9.13246 44.6853C8.75585 44.6853 8.37923 44.5347 8.15326 44.2334C7.626 43.7061 7.626 42.8023 8.15326 42.1997L33.4619 16.8911C33.9891 16.3638 34.893 16.3638 35.4956 16.8911C36.0229 17.4183 36.0229 18.3222 35.4956 18.9248L10.187 44.2334C9.88569 44.5347 9.50908 44.6853 9.13246 44.6853Z" fill="url(#paint2_linear_191_3368)"/>
<path d="M18.3981 50.1088C18.0215 50.1088 17.6449 49.9581 17.4189 49.6568C16.8916 49.1296 16.8916 48.2257 17.4189 47.6231L47.0963 17.9457C47.6235 17.4185 48.5274 17.4185 49.13 17.9457C49.6572 18.473 49.6572 19.3769 49.13 19.9795L19.3773 49.6568C19.1513 49.9581 18.7747 50.1088 18.3981 50.1088Z" fill="url(#paint3_linear_191_3368)"/>
<path d="M40.9948 42.1998C40.6182 42.1998 40.2415 42.0491 40.0156 41.7478C39.4883 41.2205 39.4883 40.3167 40.0156 39.7141L46.644 33.0856C47.1713 32.5584 48.0752 32.5584 48.6777 33.0856C49.205 33.6129 49.205 34.5168 48.6777 35.1194L42.0493 41.7478C41.748 42.0491 41.3714 42.1998 40.9948 42.1998Z" fill="url(#paint4_linear_191_3368)"/>
<path d="M1.37465 23.0677C0.998033 23.0677 0.621417 22.917 0.395447 22.6157C-0.131816 22.0884 -0.131816 21.1846 0.395447 20.582L11.468 9.50946C11.9952 8.9822 12.8991 8.9822 13.5017 9.50946C14.029 10.0367 14.029 10.9406 13.5017 11.5432L2.35385 22.6157C2.05256 22.917 1.75127 23.0677 1.37465 23.0677Z" fill="url(#paint5_linear_191_3368)"/>
<path d="M13.6523 5.51743L14.5562 5.89405C15.686 6.42131 16.6652 7.32519 17.1925 8.53036L17.5691 9.43424C17.7951 9.9615 18.5483 9.9615 18.7743 9.43424L19.1509 8.53036C19.6781 7.40051 20.582 6.42131 21.7872 5.89405L22.6911 5.51743C23.2183 5.29146 23.2183 4.53823 22.6911 4.31226L21.7872 3.93564C20.6573 3.40838 19.6781 2.5045 19.1509 1.29933L18.7743 0.395447C18.5483 -0.131816 17.7951 -0.131816 17.5691 0.395447L17.1925 1.29933C16.6652 2.42918 15.7613 3.40838 14.5562 3.93564L13.6523 4.31226C13.125 4.53823 13.125 5.29146 13.6523 5.51743Z" fill="url(#paint6_linear_191_3368)"/>
<path d="M35.6466 12.8238L36.5505 13.2004C37.6803 13.7277 38.6595 14.6316 39.1868 15.8368L39.5634 16.7406C39.7894 17.2679 40.5426 17.2679 40.7686 16.7406L41.1452 15.8368C41.6724 14.7069 42.5763 13.7277 43.7815 13.2004L44.6854 12.8238C45.2126 12.5979 45.2126 11.8446 44.6854 11.6187L43.7815 11.242C42.6516 10.7148 41.6724 9.8109 41.1452 8.60572L40.7686 7.70184C40.5426 7.17458 39.7894 7.17458 39.5634 7.70184L39.1868 8.60572C38.6595 9.73557 37.7556 10.7148 36.5505 11.242L35.6466 11.6187C35.1946 11.8446 35.1946 12.5979 35.6466 12.8238Z" fill="url(#paint7_linear_191_3368)"/>
<path d="M30.8263 47.0204L31.7302 47.397C32.86 47.9242 33.8392 48.8281 34.3665 50.0333L34.7431 50.9372C34.9691 51.4644 35.7223 51.4644 35.9483 50.9372L36.3249 50.0333C36.8522 48.9034 37.756 47.9242 38.9612 47.397L39.8651 47.0204C40.3924 46.7944 40.3924 46.0412 39.8651 45.8152L38.9612 45.4386C37.8314 44.9113 36.8522 44.0074 36.3249 42.8023L35.9483 41.8984C35.7223 41.3711 34.9691 41.3711 34.7431 41.8984L34.2912 42.8776C33.7639 44.0074 32.86 44.9866 31.6549 45.5139L30.751 45.8905C30.299 46.1165 30.299 46.7944 30.8263 47.0204Z" fill="url(#paint8_linear_191_3368)"/>
<path d="M9.35849 24.4234L10.2624 24.8001C11.3922 25.3273 12.3714 26.2312 12.8987 27.4364L13.2753 28.3402C13.5013 28.8675 14.2545 28.8675 14.4805 28.3402L14.8571 27.4364C15.3843 26.3065 16.2882 25.3273 17.4934 24.8001L18.3973 24.4234C18.9245 24.1975 18.9245 23.4442 18.3973 23.2183L17.4934 22.8416C16.3636 22.3144 15.3843 21.4105 14.8571 20.2053L14.4805 19.3015C14.2545 18.7742 13.5013 18.7742 13.2753 19.3015L12.8987 20.2053C12.3714 21.3352 11.4675 22.3144 10.2624 22.8416L9.35849 23.2183C8.90655 23.4442 8.90655 24.1975 9.35849 24.4234Z" fill="url(#paint9_linear_191_3368)"/>
<path d="M86.1135 14.9329H81.7448C80.8409 14.9329 80.4643 15.2342 80.4643 16.138L80.5396 21.8626C80.5396 22.1639 80.3136 22.3899 80.0124 22.3899H71.5008C71.1995 22.3899 70.9736 22.1639 70.9736 21.8626V16.138C70.9736 15.2342 70.6723 14.9329 69.6931 14.9329H65.3996C64.7217 14.9329 64.1191 15.4601 64.1191 16.2134V35.0442C64.1191 35.7221 64.6464 36.3247 65.3996 36.3247H69.6931C70.5969 36.3247 70.9736 36.0234 70.9736 35.1195V29.4703C70.9736 29.169 71.1995 28.943 71.5008 28.943H80.0124C80.3136 28.943 80.5396 29.169 80.5396 29.4703L80.4643 35.1195C80.4643 36.0234 80.7656 36.3247 81.7448 36.3247H86.1135C87.0927 36.3247 87.394 36.0234 87.394 35.0442V16.2134C87.3187 15.4601 86.7914 14.9329 86.1135 14.9329Z" fill="#343442"/>
<path d="M137.409 28.3404C136.731 27.6625 136.354 27.7378 135.676 28.4157L134.471 29.6209C134.32 29.7715 134.094 29.8469 133.868 29.8469H128.822C128.37 29.8469 127.993 29.4703 127.993 29.0183V16.138C127.993 15.2342 127.692 14.9329 126.713 14.9329H122.344C121.666 14.9329 121.063 15.4601 121.063 16.2134V35.0442C121.063 35.7221 121.591 36.3247 122.344 36.3247H136.053C136.957 36.3247 137.484 36.0987 138.162 35.4961L140.346 33.3871C141.024 32.7092 141.099 32.3325 140.422 31.6546L137.409 28.3404Z" fill="#343442"/>
<path d="M239.698 15.8367C239.02 15.1588 238.493 14.9329 237.589 14.9329H232.768C231.864 14.9329 231.262 15.1588 230.584 15.8367L224.709 21.9379C224.031 22.6158 223.805 23.1431 223.805 24.1223V35.1195C223.805 36.0234 224.106 36.3247 225.085 36.3247H229.379C230.282 36.3247 230.584 36.0234 230.584 35.0442V32.7092C230.584 32.4079 230.81 32.1819 231.111 32.1819H239.171C239.472 32.1819 239.698 32.4079 239.698 32.7092L239.623 35.0442C239.623 36.0234 239.924 36.3247 240.828 36.3247H245.196C246.1 36.3247 246.402 36.0234 246.402 35.0442V24.047C246.402 23.1431 246.176 22.6158 245.573 21.8626L239.698 15.8367ZM239.773 25.8547C239.773 26.156 239.547 26.382 239.246 26.382H231.036C230.734 26.382 230.508 26.156 230.508 25.8547V25.1768C230.508 25.0262 230.584 24.8755 230.659 24.8002L234.802 20.8834C235.028 20.6574 235.329 20.6574 235.555 20.8834L239.698 24.8755C239.773 24.9509 239.849 25.1015 239.849 25.3275L239.773 25.8547Z" fill="#343442"/>
<path d="M193.6 28.9429L184.259 21.5612C184.034 21.4105 184.184 21.0339 184.41 21.0339H191.491C192.168 21.0339 192.771 20.5067 192.771 19.7534V16.1379C192.771 15.234 192.47 14.8574 191.566 14.8574H178.987C178.008 14.8574 177.556 15.0834 177.028 15.8366L173.714 20.356C173.112 21.1093 173.187 21.5612 173.94 22.0885L183.054 29.4701C183.28 29.6208 183.13 29.9974 182.904 29.9974L175.823 30.0727C174.919 30.0727 174.543 30.374 174.543 31.3532V34.9687C174.543 35.9479 174.844 36.2492 175.748 36.2492H188.402C189.306 36.2492 189.833 36.0233 190.436 35.27L193.901 30.7506C194.428 29.9221 194.353 29.5455 193.6 28.9429Z" fill="#343442"/>
<path d="M301.011 28.9429L291.671 21.5612C291.445 21.4105 291.595 21.0339 291.821 21.0339H298.902C299.58 21.0339 300.182 20.5067 300.182 19.7534V16.1379C300.182 15.234 299.881 14.8574 298.977 14.8574H286.398C285.419 14.8574 284.967 15.0834 284.44 15.8366L281.125 20.356C280.523 21.1093 280.598 21.5612 281.351 22.0885L290.465 29.4701C290.691 29.6208 290.541 29.9974 290.315 29.9974L283.234 30.0727C282.331 30.0727 281.954 30.374 281.954 31.3532V34.9687C281.954 35.9479 282.255 36.2492 283.159 36.2492H295.813C296.717 36.2492 297.245 36.0233 297.847 35.27L301.312 30.7506C301.764 29.9221 301.689 29.5455 301.011 28.9429Z" fill="#343442"/>
<path d="M212.581 31.504L208.061 36.0234C207.986 36.0988 208.061 36.3247 208.137 36.3247H211.526C212.506 36.3247 212.807 36.0234 212.807 35.1196V31.73C212.957 31.4287 212.732 31.3534 212.581 31.504Z" fill="#343442"/>
<path d="M114.963 18.699L112.101 15.8367C111.649 15.3848 111.272 15.1588 110.895 15.0082C110.594 14.9329 110.293 14.9329 109.991 14.9329H98.3164C97.6385 14.9329 97.1865 15.0835 96.7346 15.3848C96.5839 15.4601 96.4333 15.6108 96.2826 15.7614L95.7554 16.2887L93.4204 18.699C92.7424 19.3769 92.5918 19.9042 92.5918 20.8081V30.4495C92.5918 31.3533 92.8178 31.9559 93.4204 32.5585L94.1736 33.2364L94.9268 33.9896C95.1528 34.2156 95.4541 34.2156 95.6801 33.9896L99.4462 30.2235C99.5215 30.1482 99.5969 29.9975 99.5969 29.8469V21.5613C99.5969 21.26 99.8228 21.034 100.124 21.034H108.41C108.711 21.034 108.937 21.26 108.937 21.5613V29.6962C108.937 29.9975 108.711 30.2235 108.41 30.2235H102.158C102.007 30.2235 101.857 30.2988 101.781 30.3741L98.919 33.3117L98.8436 33.3871L96.5839 35.6468L95.7554 36.4753C95.1528 37.0779 95.1528 37.9818 95.7554 38.509C96.358 39.1116 97.2618 39.1116 97.7891 38.509L99.4462 36.8519C99.7475 36.5506 100.199 36.3247 100.727 36.3247H110.067C110.519 36.3247 110.895 36.2493 111.197 36.174C111.573 36.0234 111.875 35.7974 112.176 35.4961L115.113 32.6338C115.641 32.1066 115.867 31.73 115.942 31.1274V31.052C115.942 30.9014 115.942 30.6754 115.942 30.5248V20.8081C115.942 20.6574 115.942 20.5821 115.942 20.5068C115.791 19.7536 115.49 19.2263 114.963 18.699Z" fill="#343442"/>
<path d="M93.0437 38.9612C92.4412 39.5638 92.4412 40.4677 93.0437 40.9949C93.6463 41.5975 94.5502 41.5975 95.0775 40.9949C95.68 40.3924 95.68 39.4885 95.0775 38.9612C94.5502 38.3586 93.571 38.3586 93.0437 38.9612Z" fill="#343442"/>
<path d="M199.626 37.9065C199.023 38.5091 199.023 39.413 199.626 39.9403C200.228 40.5428 201.132 40.5428 201.66 39.9403C202.262 39.3377 202.262 38.4338 201.66 37.9065C201.132 37.3039 200.228 37.3039 199.626 37.9065Z" fill="#343442"/>
<path d="M218.682 14.9329H200.077C199.399 14.9329 198.797 15.5354 198.797 16.2134V20.1302C198.797 21.034 199.098 21.4107 200.077 21.4107L205.425 21.3353C205.727 21.3353 205.953 21.5613 205.953 21.8626L205.877 30.8261C205.877 31.278 205.651 31.7299 205.35 32.1066L202.262 35.1948C201.734 35.7221 201.584 36.626 202.111 37.2285C202.638 37.9065 203.693 37.9818 204.295 37.3039L209.267 32.3325L210.246 31.3533L212.732 28.8677C212.882 28.717 212.958 28.4911 212.958 28.2651V21.8626C212.958 21.5613 213.184 21.3353 213.485 21.3353L218.758 21.4107C219.661 21.4107 219.963 21.1094 219.963 20.1302V16.2134C219.963 15.4601 219.435 14.9329 218.682 14.9329Z" fill="#343442"/>
<path d="M166.559 17.9458L165.805 17.1925C165.58 16.9666 165.278 16.9666 165.052 17.1925L161.286 20.9587C161.211 21.034 161.135 21.1847 161.135 21.3353V29.6209C161.135 29.9222 160.909 30.1481 160.608 30.1481H152.323C152.021 30.1481 151.795 29.9222 151.795 29.6209V21.4859C151.795 21.1847 152.021 20.9587 152.323 20.9587H158.574C158.725 20.9587 158.876 20.8834 158.951 20.808L161.813 17.9458L161.889 17.8704L164.073 15.6107L164.676 15.0081C165.203 14.4809 165.354 13.577 164.826 12.9744C164.299 12.2965 163.244 12.2212 162.642 12.8991L161.135 14.4056C160.834 14.7069 160.382 14.9328 159.855 14.9328H150.515C150.063 14.9328 149.686 15.0081 149.385 15.0835C149.008 15.2341 148.707 15.4601 148.406 15.7614L145.468 18.6237C144.941 19.1509 144.715 19.5275 144.64 20.1301V20.2055C144.64 20.3561 144.64 20.5821 144.64 20.7327V30.3741C144.64 30.5247 144.64 30.6001 144.64 30.6754C144.715 31.4286 144.941 31.8806 145.544 32.4831L148.406 35.3454C148.858 35.7974 149.234 36.0233 149.611 36.174C149.912 36.2493 150.214 36.2493 150.515 36.2493H162.19C162.868 36.2493 163.32 36.0987 163.772 35.7974C163.922 35.722 164.073 35.5714 164.224 35.4208L164.751 34.8935L167.086 32.4831C167.764 31.8052 167.915 31.278 167.915 30.3741V20.7327C167.915 19.8288 167.689 19.2262 167.086 18.6237L166.559 17.9458Z" fill="#343442"/>
<path d="M167.312 12.3719C167.914 11.7693 167.914 10.8654 167.312 10.3382C166.709 9.73558 165.805 9.73558 165.278 10.3382C164.676 10.9408 164.676 11.8446 165.278 12.3719C165.881 12.9745 166.785 12.9745 167.312 12.3719Z" fill="#343442"/>
<path d="M274.12 14.1043L267.642 20.5821C267.416 20.8081 267.416 21.1847 267.642 21.4107L268.17 21.9379C268.17 22.0133 268.245 22.1639 268.32 22.2392V23.9717C268.32 24.1223 268.245 24.273 268.17 24.3483L266.889 25.2522C266.814 25.3275 266.663 25.4028 266.513 25.4028H259.508C259.206 25.4028 258.98 25.1768 258.98 24.8755L258.905 21.486C258.905 21.1847 259.131 20.9587 259.432 20.9587H264.78C264.931 20.9587 265.081 20.8834 265.157 20.8081L270.279 15.8368C270.655 15.5355 270.429 14.9329 269.902 14.9329H253.482C252.804 14.9329 252.201 15.4601 252.201 16.2134V35.0442C252.201 35.9481 252.502 36.3247 253.406 36.3247H257.7C258.604 36.3247 258.905 36.0234 258.905 35.0442V31.9559C258.905 31.6546 259.131 31.4287 259.432 31.4287H266.437C266.588 31.4287 266.739 31.504 266.814 31.5793L268.245 33.0105C268.32 33.0858 268.396 33.2364 268.396 33.3871L268.32 35.0442C268.245 35.9481 268.622 36.2494 269.526 36.2494H273.894C274.798 36.2494 275.175 35.9481 275.175 35.0442V32.0313C275.175 31.1274 274.949 30.6001 274.271 29.9222L272.388 28.1144L274.271 26.382C274.949 25.7041 275.175 25.1768 275.175 24.273V20.8834C275.175 20.0549 274.949 19.3769 274.346 18.6237C274.196 18.4731 274.196 18.1718 274.346 18.0211L276.229 16.138C276.832 15.5355 276.832 14.5563 276.154 13.9537C275.551 13.4264 274.648 13.5017 274.12 14.1043Z" fill="#343442"/>
<path d="M277.811 13.8784C278.601 13.8784 279.242 13.2377 279.242 12.4473C279.242 11.6569 278.601 11.0161 277.811 11.0161C277.021 11.0161 276.38 11.6569 276.38 12.4473C276.38 13.2377 277.021 13.8784 277.811 13.8784Z" fill="#343442"/>
<defs>
<linearGradient id="paint0_linear_191_3368" x1="34.979" y1="2.7318" x2="-3.69779" y2="41.4086" gradientUnits="userSpaceOnUse">
<stop stop-color="#86D1FD"/>
<stop offset="1" stop-color="#6100FA"/>
</linearGradient>
<linearGradient id="paint1_linear_191_3368" x1="37.9401" y1="-0.322277" x2="-2.42137" y2="40.0391" gradientUnits="userSpaceOnUse">
<stop stop-color="#86D1FD"/>
<stop offset="1" stop-color="#6100FA"/>
</linearGradient>
<linearGradient id="paint2_linear_191_3368" x1="43.2547" y1="9.13147" x2="4.80981" y2="47.5763" gradientUnits="userSpaceOnUse">
<stop stop-color="#86D1FD"/>
<stop offset="1" stop-color="#6100FA"/>
</linearGradient>
<linearGradient id="paint3_linear_191_3368" x1="49.5847" y1="17.4787" x2="12.244" y2="54.8193" gradientUnits="userSpaceOnUse">
<stop stop-color="#86D1FD"/>
<stop offset="1" stop-color="#6100FA"/>
</linearGradient>
<linearGradient id="paint4_linear_191_3368" x1="56.7679" y1="24.9713" x2="20.123" y2="61.6162" gradientUnits="userSpaceOnUse">
<stop stop-color="#86D1FD"/>
<stop offset="1" stop-color="#6100FA"/>
</linearGradient>
<linearGradient id="paint5_linear_191_3368" x1="28.3309" y1="-5.34271" x2="-10.4821" y2="33.4704" gradientUnits="userSpaceOnUse">
<stop stop-color="#86D1FD"/>
<stop offset="1" stop-color="#6100FA"/>
</linearGradient>
<linearGradient id="paint6_linear_191_3368" x1="27.5698" y1="-4.53567" x2="-9.77077" y2="32.8049" gradientUnits="userSpaceOnUse">
<stop stop-color="#86D1FD"/>
<stop offset="1" stop-color="#6100FA"/>
</linearGradient>
<linearGradient id="paint7_linear_191_3368" x1="42.2459" y1="10.1406" x2="4.90533" y2="47.4812" gradientUnits="userSpaceOnUse">
<stop stop-color="#86D1FD"/>
<stop offset="1" stop-color="#6100FA"/>
</linearGradient>
<linearGradient id="paint8_linear_191_3368" x1="56.9226" y1="24.8167" x2="19.582" y2="62.1572" gradientUnits="userSpaceOnUse">
<stop stop-color="#86D1FD"/>
<stop offset="1" stop-color="#6100FA"/>
</linearGradient>
<linearGradient id="paint9_linear_191_3368" x1="34.8845" y1="2.77907" x2="-2.45626" y2="40.1198" gradientUnits="userSpaceOnUse">
<stop stop-color="#86D1FD"/>
<stop offset="1" stop-color="#6100FA"/>
</linearGradient>
</defs>
</svg>
